<svg width="381" height="64" viewBox="0 0 381 64" fill="none" xmlns="http://www.w3.org/2000/svg">
<path d="M142.326 11.3041L142.606 10.8904L142.606 10.8904L142.326 11.3041ZM142.326 56.5L142.737 56.2152L142.737 56.2152L142.326 56.5ZM240.5 11.3041L240.37 11.7868L240.5 11.3041ZM380.759 22.9898C380.995 23.1329 381.071 23.4403 380.928 23.6765L378.596 27.5255C378.453 27.7616 378.146 27.8371 377.91 27.6941C377.673 27.551 377.598 27.2435 377.741 27.0074L379.813 23.5861L376.392 21.5137C376.156 21.3706 376.08 21.0632 376.223 20.827C376.366 20.5908 376.674 20.5153 376.91 20.6584L380.759 22.9898ZM0.680534 26.0328C1.18714 25.6121 1.72713 25.191 2.29891 24.7702L2.89166 25.5756C2.33418 25.9859 1.80971 26.3949 1.31947 26.8021L0.680534 26.0328ZM5.76091 22.4571C6.8764 21.7741 8.07044 21.0932 9.33671 20.4167L9.80793 21.2987C8.55702 21.967 7.38013 22.6383 6.28309 23.31L5.76091 22.4571ZM13.0178 18.5588C14.2199 17.984 15.472 17.4139 16.7699 16.8498L17.1685 17.7669C15.8808 18.3265 14.6397 18.8917 13.4491 19.461L13.0178 18.5588ZM20.5748 15.266C21.8236 14.7676 23.107 14.2753 24.4222 13.7902L24.7683 14.7284C23.461 15.2106 22.1858 15.6998 20.9454 16.1948L20.5748 15.266ZM28.3055 12.4102C29.5859 11.9718 30.8916 11.5406 32.2201 11.1173L32.5237 12.0701C31.2018 12.4913 29.9029 12.9203 28.6295 13.3563L28.3055 12.4102ZM36.1541 9.90748C37.4519 9.52233 38.7683 9.14515 40.1011 8.77669L40.3676 9.74054C39.0407 10.1074 37.7304 10.4828 36.4387 10.8662L36.1541 9.90748ZM44.0732 7.71734C45.3916 7.37835 46.7236 7.04822 48.0676 6.72763L48.2996 7.70034C46.9613 8.01958 45.6349 8.34831 44.3222 8.68584L44.0732 7.71734ZM52.0811 5.80671C53.4138 5.51293 54.7562 5.22888 56.1065 4.95522L56.3051 5.93529C54.9604 6.20783 53.6236 6.4907 52.2964 6.78327L52.0811 5.80671ZM60.1409 4.17324C61.4856 3.92445 62.8365 3.68635 64.192 3.45956L64.357 4.44586C63.0072 4.67169 61.6619 4.90879 60.3228 5.15655L60.1409 4.17324ZM68.2562 2.81595C69.6116 2.6135 70.9699 2.42283 72.3297 2.24457L72.4597 3.23608C71.1059 3.41356 69.7535 3.60339 68.404 3.80498L68.2562 2.81595ZM76.4137 1.74736C77.779 1.59403 79.1443 1.45378 80.508 1.32724L80.6004 2.32296C79.2433 2.4489 77.8844 2.58848 76.5253 2.74111L76.4137 1.74736ZM84.6086 0.988132C85.9802 0.888785 87.3485 0.804029 88.7118 0.734496L88.7628 1.7332C87.4067 1.80236 86.0455 1.88667 84.6809 1.98552L84.6086 0.988132ZM92.8268 0.571038C94.2077 0.532093 95.5817 0.509701 96.9472 0.504543L96.9509 1.50454C95.5938 1.50966 94.228 1.53192 92.855 1.57064L92.8268 0.571038ZM101.066 0.54256C102.448 0.5738 103.82 0.623934 105.179 0.6937L105.127 1.69238C103.778 1.62313 102.416 1.57334 101.043 1.5423L101.066 0.54256ZM109.282 0.968121C110.666 1.083 112.035 1.21993 113.386 1.37976L113.269 2.37283C111.93 2.21443 110.573 2.07865 109.199 1.9647L109.282 0.968121ZM117.477 1.94354C118.855 2.16144 120.21 2.40553 121.541 2.67679L121.342 3.65665C120.026 3.38847 118.685 3.14697 117.321 2.93126L117.477 1.94354ZM125.567 3.60079C126.922 3.9487 128.247 4.32835 129.54 4.74092L129.235 5.69353C127.963 5.28714 126.656 4.91277 125.319 4.56938L125.567 3.60079ZM133.437 6.1271C134.743 6.64283 136.008 7.19777 137.228 7.79344L136.79 8.69208C135.594 8.10851 134.353 7.56397 133.07 7.05723L133.437 6.1271ZM140.871 9.77663C141.463 10.136 142.042 10.5072 142.606 10.8904L142.045 11.7179C141.495 11.3445 140.93 10.9824 140.352 10.6316L140.871 9.77663ZM142.606 10.8904C143.176 11.2769 143.733 11.6658 144.279 12.0567L143.696 12.8693C143.158 12.4835 142.608 12.0996 142.045 11.7179L142.606 10.8904ZM147.469 14.4774C148.539 15.3377 149.555 16.2059 150.517 17.0802L149.844 17.8203C148.898 16.9599 147.898 16.1048 146.842 15.2568L147.469 14.4774ZM153.397 19.8762C154.355 20.871 155.247 21.8708 156.078 22.8731L155.308 23.5111C154.493 22.5284 153.617 21.5469 152.677 20.5696L153.397 19.8762ZM158.519 26.0733C159.312 27.2082 160.029 28.3425 160.675 29.4722L159.807 29.9684C159.176 28.8654 158.475 27.7566 157.699 26.646L158.519 26.0733ZM162.495 33.0561C163.063 34.3281 163.542 35.5886 163.938 36.832L162.986 37.1361C162.6 35.9283 162.134 34.7021 161.582 33.4633L162.495 33.0561ZM164.936 40.7497C165.196 42.122 165.357 43.4635 165.427 44.7654L164.429 44.8192C164.361 43.5625 164.206 42.2653 163.953 40.9362L164.936 40.7497ZM165.35 48.8127C165.216 50.219 164.971 51.559 164.628 52.8188L163.663 52.5566C163.99 51.3534 164.225 50.0694 164.354 48.7178L165.35 48.8127ZM163.181 56.6318C162.536 57.9122 161.771 59.0568 160.909 60.0396L160.157 59.3802C160.959 58.466 161.678 57.3929 162.288 56.1817L163.181 56.6318ZM157.72 62.6723C156.48 63.3714 155.141 63.8021 153.746 63.9181L153.663 62.9215C154.905 62.8183 156.106 62.4346 157.229 61.8013L157.72 62.6723ZM149.626 63.3466C148.425 62.912 147.224 62.2382 146.047 61.3092L146.667 60.5242C147.769 61.394 148.876 62.0119 149.966 62.4062L149.626 63.3466ZM143.15 58.4253C142.732 57.9163 142.32 57.3698 141.915 56.7848L142.737 56.2152C143.127 56.7791 143.523 57.304 143.923 57.7911L143.15 58.4253ZM141.915 56.7848C141.518 56.2126 141.169 55.6319 140.866 55.0434L141.755 54.5857C142.037 55.134 142.364 55.6775 142.737 56.2152L141.915 56.7848ZM139.56 51.2303C139.319 49.9016 139.286 48.5534 139.444 47.196L140.437 47.3117C140.29 48.5764 140.322 49.8255 140.544 51.0521L139.56 51.2303ZM140.4 43.3078C140.848 42.1051 141.431 40.9033 142.139 39.7082L143 40.2181C142.318 41.3677 141.762 42.5157 141.338 43.6562L140.4 43.3078ZM144.386 36.4543C145.173 35.4539 146.045 34.4611 146.994 33.4791L147.713 34.1741C146.785 35.1339 145.936 36.1014 145.171 37.0729L144.386 36.4543ZM149.856 30.7544C150.817 29.9087 151.835 29.0735 152.904 28.2513L153.514 29.0442C152.461 29.8537 151.46 30.6748 150.517 31.505L149.856 30.7544ZM156.093 25.9446C157.153 25.2212 158.254 24.5102 159.393 23.8136L159.915 24.6665C158.79 25.3549 157.703 26.0569 156.656 26.7707L156.093 25.9446ZM162.784 21.8418C163.911 21.2191 165.069 20.6103 166.254 20.0169L166.702 20.9111C165.528 21.4986 164.383 22.1011 163.268 22.7171L162.784 21.8418ZM169.792 18.3297C170.968 17.7953 172.168 17.2761 173.389 16.7735L173.77 17.6982C172.56 18.1964 171.371 18.7108 170.205 19.2402L169.792 18.3297ZM177.04 15.3438C178.256 14.8915 179.489 14.4558 180.738 14.0378L181.056 14.9861C179.817 15.4006 178.594 15.8327 177.389 16.281L177.04 15.3438ZM184.479 12.854C185.725 12.4818 186.985 12.1274 188.256 11.7921L188.511 12.759C187.25 13.0916 186.001 13.443 184.765 13.8122L184.479 12.854ZM192.062 10.8537C193.33 10.5625 194.608 10.2907 195.894 10.039L196.086 11.0204C194.811 11.27 193.543 11.5396 192.285 11.8283L192.062 10.8537ZM199.754 9.34949C201.042 9.14126 202.336 8.95386 203.635 8.7883L203.762 9.78028C202.474 9.94441 201.19 10.1302 199.913 10.3367L199.754 9.34949ZM207.534 8.35926C208.835 8.23884 210.139 8.14101 211.445 8.06674L211.502 9.06513C210.208 9.13872 208.915 9.23566 207.626 9.355L207.534 8.35926ZM215.364 7.91565C216.672 7.88945 217.981 7.88779 219.288 7.91165L219.27 8.91148C217.975 8.88786 216.68 8.8895 215.384 8.91545L215.364 7.91565ZM223.209 8.06105C224.516 8.13722 225.821 8.24006 227.121 8.37056L227.021 9.36556C225.735 9.23649 224.445 9.13474 223.151 9.05935L223.209 8.06105ZM231.017 8.84738C232.314 9.0354 233.606 9.25241 234.89 9.49943L234.701 10.4814C233.433 10.2374 232.156 10.0229 230.873 9.83705L231.017 8.84738ZM238.729 10.3339C239.365 10.4885 239.999 10.651 240.63 10.8214L240.37 11.7868C239.747 11.6187 239.121 11.4583 238.493 11.3056L238.729 10.3339ZM240.63 10.8214C241.283 10.9976 241.931 11.1735 242.574 11.349L242.31 12.3137C241.668 12.1384 241.022 11.9628 240.37 11.7868L240.63 10.8214ZM246.395 12.4048C247.69 12.7667 248.965 13.1268 250.221 13.4848L249.947 14.4465C248.693 14.089 247.419 13.7293 246.126 13.368L246.395 12.4048ZM254.054 14.5868C255.347 14.9616 256.619 15.3336 257.873 15.7023L257.591 16.6617C256.338 16.2933 255.067 15.9217 253.775 15.5472L254.054 14.5868ZM261.684 16.8285C262.971 17.2106 264.239 17.5885 265.49 17.9616L265.204 18.9199C263.954 18.5469 262.686 18.1691 261.399 17.7871L261.684 16.8285ZM269.294 19.0969C270.579 19.4802 271.847 19.8575 273.099 20.2281L272.815 21.187C271.562 20.8161 270.294 20.4386 269.008 20.0552L269.294 19.0969ZM276.908 21.3483C278.195 21.7237 279.467 22.0909 280.726 22.4492L280.452 23.411C279.191 23.052 277.917 22.6842 276.628 22.3083L276.908 21.3483ZM284.55 23.5197C285.838 23.8737 287.115 24.2171 288.383 24.5493L288.129 25.5166C286.857 25.1834 285.577 24.8389 284.285 24.484L284.55 23.5197ZM292.227 25.5266C293.519 25.8444 294.805 26.1493 296.087 26.4402L295.866 27.4154C294.577 27.123 293.286 26.8168 291.988 26.4976L292.227 25.5266ZM299.963 27.2779C301.259 27.5437 302.555 27.7942 303.854 28.0285L303.676 29.0126C302.369 28.7768 301.066 28.5248 299.762 28.2576L299.963 27.2779ZM307.76 28.6818C309.061 28.8817 310.367 29.0647 311.682 29.2297L311.557 30.2219C310.233 30.0557 308.918 29.8715 307.608 29.6702L307.76 28.6818ZM315.616 29.6661C316.919 29.7916 318.233 29.899 319.561 29.9875L319.495 30.9853C318.157 30.8961 316.833 30.7879 315.52 30.6615L315.616 29.6661ZM323.514 30.1927C324.817 30.2412 326.136 30.2714 327.472 30.2827L327.464 31.2827C326.118 31.2713 324.79 31.2408 323.477 31.192L323.514 30.1927ZM331.433 30.2607C332.734 30.2356 334.054 30.1927 335.393 30.1313L335.439 31.1303C334.091 31.192 332.762 31.2352 331.452 31.2606L331.433 30.2607ZM339.353 29.9C340.652 29.8081 341.971 29.6992 343.312 29.5729L343.405 30.5685C342.057 30.6955 340.731 30.805 339.424 30.8975L339.353 29.9ZM347.242 29.1593C348.529 29.01 349.837 28.8452 351.166 28.6642L351.301 29.6551C349.965 29.8369 348.651 30.0026 347.357 30.1526L347.242 29.1593ZM355.086 28.0934C356.373 27.8942 357.68 27.6805 359.008 27.4519L359.178 28.4374C357.844 28.6669 356.532 28.8816 355.239 29.0817L355.086 28.0934ZM362.928 26.7455C364.199 26.5065 365.489 26.2544 366.799 25.9889L366.998 26.9689C365.683 27.2353 364.388 27.4883 363.113 27.7282L362.928 26.7455ZM370.681 25.1757C371.962 24.8988 373.262 24.6096 374.582 24.3077L374.805 25.2826C373.481 25.5853 372.177 25.8754 370.892 26.1532L370.681 25.1757ZM378.42 23.408C379.069 23.2522 379.722 23.0935 380.381 22.9319L380.619 23.903C379.959 24.0651 379.304 24.2242 378.653 24.3804L378.42 23.408Z" fill="black"/>
</svg>
