<svg width="381" height="46" viewBox="0 0 381 46" fill="none" xmlns="http://www.w3.org/2000/svg">
<path d="M142.326 31.1133L142.606 31.5271L142.326 31.1133ZM240.5 31.1133L240.759 31.5411L240.759 31.5411L240.5 31.1133ZM380.687 19.4637C380.943 19.3604 381.067 19.0691 380.964 18.813L379.281 14.6395C379.178 14.3834 378.886 14.2595 378.63 14.3628C378.374 14.4661 378.25 14.7574 378.353 15.0135L379.849 18.7233L376.14 20.2191C375.883 20.3224 375.76 20.6137 375.863 20.8698C375.966 21.1259 376.257 21.2498 376.513 21.1466L380.687 19.4637ZM0.680534 16.3846C1.18714 16.8054 1.72713 17.2264 2.29891 17.6473L2.89166 16.8419C2.33418 16.4316 1.80971 16.0225 1.31947 15.6154L0.680534 16.3846ZM5.76091 19.9603C6.8764 20.6433 8.07044 21.3242 9.33671 22.0007L9.80793 21.1187C8.55702 20.4504 7.38013 19.7792 6.28309 19.1075L5.76091 19.9603ZM13.0178 23.8587C14.2199 24.4334 15.472 25.0036 16.7699 25.5676L17.1685 24.6505C15.8808 24.0909 14.6397 23.5257 13.4491 22.9565L13.0178 23.8587ZM20.5748 27.1515C21.8236 27.6498 23.107 28.1421 24.4222 28.6273L24.7683 27.689C23.461 27.2068 22.1858 26.7177 20.9454 26.2227L20.5748 27.1515ZM28.3055 30.0072C29.5859 30.4456 30.8916 30.8769 32.2201 31.3002L32.5237 30.3473C31.2018 29.9262 29.9029 29.4972 28.6295 29.0611L28.3055 30.0072ZM36.1541 32.51C37.4519 32.8951 38.7683 33.2723 40.1011 33.6408L40.3676 32.6769C39.0407 32.3101 37.7304 31.9346 36.4387 31.5513L36.1541 32.51ZM44.0732 34.7001C45.3916 35.0391 46.7236 35.3692 48.0676 35.6898L48.2996 34.7171C46.9613 34.3979 45.6349 34.0691 44.3222 33.7316L44.0732 34.7001ZM52.0811 36.6107C53.4138 36.9045 54.7562 37.1886 56.1065 37.4622L56.3051 36.4822C54.9604 36.2096 53.6236 35.9268 52.2964 35.6342L52.0811 36.6107ZM60.1409 38.2442C61.4856 38.493 62.8365 38.7311 64.192 38.9579L64.357 37.9716C63.0072 37.7458 61.6619 37.5087 60.3228 37.2609L60.1409 38.2442ZM68.2562 39.6015C69.6116 39.804 70.9699 39.9946 72.3297 40.1729L72.4597 39.1814C71.1059 39.0039 69.7535 38.8141 68.404 38.6125L68.2562 39.6015ZM76.4137 40.6701C77.779 40.8234 79.1443 40.9637 80.508 41.0902L80.6004 40.0945C79.2433 39.9686 77.8844 39.829 76.5253 39.6763L76.4137 40.6701ZM84.6086 41.4293C85.9802 41.5287 87.3485 41.6134 88.7118 41.683L88.7628 40.6843C87.4067 40.6151 86.0455 40.5308 84.6809 40.4319L84.6086 41.4293ZM92.8268 41.8464C94.2077 41.8854 95.5817 41.9078 96.9472 41.9129L96.9509 40.9129C95.5938 40.9078 94.228 40.8855 92.855 40.8468L92.8268 41.8464ZM101.066 41.8749C102.448 41.8437 103.82 41.7935 105.179 41.7238L105.127 40.7251C103.778 40.7943 102.416 40.8441 101.043 40.8752L101.066 41.8749ZM109.282 41.4493C110.666 41.3345 112.035 41.1975 113.386 41.0377L113.269 40.0446C111.93 40.203 110.573 40.3388 109.199 40.4528L109.282 41.4493ZM117.477 40.4739C118.855 40.256 120.21 40.0119 121.541 39.7407L121.342 38.7608C120.026 39.029 118.685 39.2705 117.321 39.4862L117.477 40.4739ZM125.567 38.8167C126.922 38.4688 128.247 38.0891 129.54 37.6765L129.235 36.7239C127.963 37.1303 126.656 37.5047 125.319 37.8481L125.567 38.8167ZM133.437 36.2904C134.743 35.7746 136.008 35.2197 137.228 34.624L136.79 33.7254C135.594 34.309 134.353 34.8535 133.07 35.3602L133.437 36.2904ZM140.871 32.6408C141.463 32.2814 142.042 31.9103 142.606 31.5271L142.045 30.6996C141.495 31.073 140.93 31.435 140.352 31.7859L140.871 32.6408ZM142.606 31.5271C143.18 31.1379 143.735 30.7511 144.272 30.3668L143.69 29.5535C143.16 29.9329 142.612 30.315 142.045 30.6996L142.606 31.5271ZM147.405 27.9918C148.49 27.1161 149.482 26.2543 150.385 25.4072L149.701 24.6779C148.818 25.5066 147.845 26.3521 146.777 27.2134L147.405 27.9918ZM153.138 22.5628C154.074 21.4855 154.864 20.4349 155.519 19.4131L154.677 18.8737C154.051 19.8502 153.291 20.8621 152.383 21.9069L153.138 22.5628ZM157.328 15.8086C157.83 14.4098 158.066 13.0781 158.067 11.8233L157.067 11.8225C157.066 12.9512 156.854 14.169 156.387 15.4709L157.328 15.8086ZM157.193 7.83035C156.616 6.59472 155.779 5.50103 154.755 4.56011L154.078 5.29656C155.018 6.15992 155.772 7.14998 156.287 8.25327L157.193 7.83035ZM151.402 2.30493C150.226 1.7287 148.948 1.27803 147.616 0.960163L147.384 1.93286C148.65 2.23488 149.857 2.66156 150.962 3.20293L151.402 2.30493ZM143.647 0.417262C142.316 0.364684 140.969 0.438819 139.648 0.647696L139.804 1.63544C141.059 1.43713 142.339 1.3664 143.608 1.41648L143.647 0.417262ZM135.772 1.69543C134.517 2.19167 133.326 2.83635 132.241 3.63886L132.836 4.44288C133.846 3.69613 134.959 3.09228 136.14 2.6253L135.772 1.69543ZM129.376 6.48874C128.601 7.53305 127.956 8.71813 127.475 10.0487L128.416 10.3886C128.864 9.14915 129.462 8.05047 130.179 7.08486L129.376 6.48874ZM126.6 13.9761C126.534 14.6263 126.5 15.3008 126.5 16H127.5C127.5 15.3333 127.532 14.6925 127.595 14.0772L126.6 13.9761ZM126.5 16C126.5 16.6998 126.542 17.391 126.623 18.0731L127.616 17.9542C127.539 17.3116 127.5 16.6602 127.5 16H126.5ZM127.596 22.0827C128.068 23.3552 128.685 24.586 129.436 25.7722L130.281 25.2374C129.565 24.1062 128.98 22.938 128.534 21.7354L127.596 22.0827ZM131.924 29.0277C132.811 30.0094 133.796 30.9539 134.871 31.8596L135.515 31.0951C134.472 30.2159 133.521 29.3026 132.666 28.3572L131.924 29.0277ZM138.139 34.3157C139.233 35.0513 140.391 35.7558 141.608 36.4282L142.092 35.5528C140.898 34.8936 139.765 34.2042 138.698 33.486L138.139 34.3157ZM145.228 38.2532C146.429 38.8061 147.675 39.3319 148.962 39.8295L149.322 38.8968C148.054 38.4063 146.827 37.8886 145.646 37.3449L145.228 38.2532ZM152.779 41.1846C154.041 41.5949 155.336 41.9804 156.659 42.3404L156.922 41.3754C155.613 41.0196 154.334 40.6387 153.088 40.2336L152.779 41.1846ZM160.587 43.3143C161.886 43.6064 163.208 43.8752 164.552 44.1199L164.731 43.1361C163.401 42.8937 162.092 42.6277 160.806 42.3387L160.587 43.3143ZM168.544 44.7679C169.866 44.9567 171.204 45.123 172.558 45.2662L172.663 44.2717C171.322 44.1298 169.995 43.965 168.686 43.7779L168.544 44.7679ZM176.587 45.621C177.921 45.7152 179.268 45.7873 180.624 45.8368L180.66 44.8375C179.315 44.7884 177.98 44.7169 176.657 44.6235L176.587 45.621ZM184.66 45.9169C185.999 45.9213 187.345 45.9037 188.698 45.8637L188.668 44.8641C187.327 44.9038 185.991 44.9212 184.663 44.9169L184.66 45.9169ZM192.733 45.6781C194.073 45.5945 195.416 45.4887 196.762 45.3603L196.667 44.3648C195.332 44.4922 194 44.5971 192.671 44.6801L192.733 45.6781ZM200.778 44.9097C202.112 44.7375 203.445 44.5428 204.777 44.3249L204.616 43.338C203.295 43.554 201.973 43.7472 200.65 43.9179L200.778 44.9097ZM208.753 43.6046C210.073 43.3418 211.39 43.0557 212.702 42.7459L212.472 41.7726C211.172 42.0797 209.867 42.3633 208.558 42.6238L208.753 43.6046ZM216.618 41.7457C217.918 41.3883 219.211 41.0068 220.496 40.6007L220.194 39.6472C218.922 40.0494 217.641 40.4274 216.353 40.7815L216.618 41.7457ZM224.326 39.3073C225.596 38.8507 226.855 38.3689 228.102 37.8616L227.726 36.9353C226.491 37.4374 225.244 37.9143 223.988 38.3664L224.326 39.3073ZM231.816 36.259C233.044 35.6975 234.259 35.1098 235.458 34.4953L235.002 33.6053C233.816 34.2129 232.615 34.7941 231.4 35.3496L231.816 36.259ZM239.016 32.5672C239.601 32.2321 240.182 31.89 240.759 31.5411L240.241 30.6856C239.671 31.0303 239.097 31.3682 238.519 31.6995L239.016 32.5672ZM240.759 31.5411C241.321 31.2007 241.882 30.8618 242.44 30.5246L241.923 29.6687C241.364 30.0061 240.804 30.345 240.241 30.6856L240.759 31.5411ZM245.784 28.5093C246.909 27.834 248.025 27.1665 249.135 26.5076L248.624 25.6478C247.513 26.3077 246.395 26.976 245.269 27.652L245.784 28.5093ZM252.496 24.5267C253.628 23.8657 254.753 23.2147 255.873 22.5747L255.377 21.7064C254.254 22.3482 253.126 23.0008 251.992 23.6633L252.496 24.5267ZM259.273 20.6584C260.419 20.0227 261.56 19.3995 262.699 18.7898L262.226 17.9083C261.083 18.5205 259.937 19.1461 258.788 19.7841L259.273 20.6584ZM266.152 16.9796C267.316 16.3838 268.477 15.8032 269.639 15.2389L269.203 14.3393C268.034 14.907 266.865 15.4907 265.696 16.0896L266.152 16.9796ZM273.164 13.5792C274.35 13.0387 275.537 12.5162 276.728 12.0128L276.339 11.0917C275.139 11.5989 273.943 12.1252 272.749 12.6693L273.164 13.5792ZM280.335 10.5518C281.547 10.083 282.763 9.63477 283.986 9.20823L283.657 8.26401C282.423 8.69439 281.196 9.1465 279.974 9.61917L280.335 10.5518ZM287.681 7.99351C288.917 7.61184 290.162 7.25292 291.416 6.91785L291.158 5.95172C289.891 6.29018 288.634 6.65265 287.386 7.03799L287.681 7.99351ZM295.191 5.98992C296.448 5.70744 297.717 5.44921 298.999 5.21631L298.82 4.23243C297.525 4.46782 296.242 4.72878 294.972 5.01422L295.191 5.98992ZM302.835 4.60132C304.107 4.42451 305.393 4.27265 306.693 4.14674L306.597 3.15139C305.283 3.27865 303.983 3.43213 302.697 3.61084L302.835 4.60132ZM310.567 3.85192C311.846 3.78081 313.14 3.73454 314.45 3.71401L314.435 2.71413C313.111 2.73487 311.804 2.78161 310.512 2.85346L310.567 3.85192ZM318.338 3.72833C319.617 3.75746 320.912 3.81071 322.225 3.88887L322.284 2.89064C320.96 2.81176 319.652 2.758 318.36 2.72859L318.338 3.72833ZM326.109 4.18883C327.384 4.30941 328.675 4.45297 329.983 4.62017L330.11 3.62824C328.791 3.45967 327.489 3.3149 326.204 3.19328L326.109 4.18883ZM333.823 5.17144C335.083 5.37182 336.359 5.5936 337.651 5.83731L337.837 4.85463C336.535 4.60918 335.25 4.38577 333.98 4.18385L333.823 5.17144ZM341.471 6.61128C342.727 6.88312 343.999 7.17513 345.287 7.48778L345.523 6.51599C344.227 6.20142 342.947 5.90754 341.683 5.6339L341.471 6.61128ZM349.043 8.44556C350.277 8.77528 351.526 9.12343 352.79 9.49038L353.069 8.53001C351.798 8.16112 350.542 7.81105 349.301 7.47944L349.043 8.44556ZM356.542 10.6206C357.76 11.0007 358.991 11.3976 360.237 11.8119L360.553 10.8629C359.301 10.4468 358.063 10.0479 356.84 9.66605L356.542 10.6206ZM363.921 13.072C365.14 13.5005 366.372 13.945 367.618 14.4058L367.965 13.4679C366.714 13.0052 365.476 12.5589 364.253 12.1286L363.921 13.072ZM371.234 15.774C372.436 16.2387 373.651 16.7181 374.878 17.2126L375.252 16.2851C374.02 15.7889 372.801 15.3077 371.595 14.8413L371.234 15.774ZM378.477 18.6896C379.083 18.9429 379.692 19.1997 380.304 19.4601L380.696 18.5399C380.081 18.2787 379.47 18.021 378.862 17.767L378.477 18.6896Z" fill="black"/>
</svg>
