<svg width="24" height="24" viewBox="0 0 24 24" fill="none" xmlns="http://www.w3.org/2000/svg">
<path d="M2.8866 11.5841C2.8866 12.7213 3.11059 13.8474 3.54579 14.898C3.98099 15.9487 4.61887 16.9034 5.42301 17.7075C6.22715 18.5116 7.1818 19.1495 8.23246 19.5847C9.28312 20.0199 10.4092 20.2439 11.5464 20.2439C12.6837 20.2439 13.8098 20.0199 14.8604 19.5847C15.9111 19.1495 16.8657 18.5116 17.6699 17.7075C18.474 16.9034 19.1119 15.9487 19.5471 14.898C19.9823 13.8474 20.2063 12.7213 20.2063 11.5841C20.2063 10.4468 19.9823 9.32075 19.5471 8.27009C19.1119 7.21943 18.474 6.26478 17.6699 5.46063C16.8657 4.65649 15.9111 4.01861 14.8604 3.58342C13.8098 3.14822 12.6837 2.92422 11.5464 2.92422C10.4092 2.92422 9.28312 3.14822 8.23246 3.58342C7.1818 4.01861 6.22715 4.65649 5.42301 5.46063C4.61887 6.26478 3.98099 7.21943 3.54579 8.27009C3.11059 9.32075 2.8866 10.4468 2.8866 11.5841Z" stroke="#FF0000" stroke-width="1.92441" stroke-linecap="round" stroke-linejoin="round"/>
<path d="M11.5465 8.69745V12.5463" stroke="#FF0000" stroke-width="1.92441" stroke-linecap="round" stroke-linejoin="round"/>
<path d="M11.5465 15.4329V15.4431" stroke="#FF0000" stroke-width="1.92441" stroke-linecap="round" stroke-linejoin="round"/>
</svg>
